HIERARCHY
ROOT Hips
{
	OFFSET -0.001795 -0.223333 0.028219
	CHANNELS 6 Xposition Yposition Zposition Zrotation Yrotation Xrotation 
	JOINT LeftUpLeg
	{
		OFFSET 0.069520 -0.091406 -0.006815
		CHANNELS 3 Zrotation Yrotation Xrotation
		JOINT LeftLeg
		{
			OFFSET 0.034277 -0.375199 -0.004496
			CHANNELS 3 Zrotation Yrotation Xrotation
			JOINT LeftFoot
			{
				OFFSET -0.013596 -0.397961 -0.043693
				CHANNELS 3 Zrotation Yrotation Xrotation
				JOINT LeftToe
				{
					OFFSET 0.026358 -0.055791 0.119288
					CHANNELS 3 Zrotation Yrotation Xrotation
					End Site
					{
						OFFSET 0.000000 0.000000 0.000000
					}
				}
			}
		}
	}
	JOINT RightUpLeg
	{
		OFFSET -0.067670 -0.090522 -0.004320
		CHANNELS 3 Zrotation Yrotation Xrotation
		JOINT RightLeg
		{
			OFFSET -0.038290 -0.382569 -0.008850
			CHANNELS 3 Zrotation Yrotation Xrotation
			JOINT RightFoot
			{
				OFFSET 0.015774 -0.398415 -0.042312
				CHANNELS 3 Zrotation Yrotation Xrotation
				JOINT RightToe
				{
					OFFSET -0.025372 -0.048144 0.123348
					CHANNELS 3 Zrotation Yrotation Xrotation
					End Site
					{
						OFFSET 0.000000 0.000000 0.000000
					}
				}
			}
		}
	}
	JOINT Spine
	{
		OFFSET -0.002533 0.108963 -0.026696
		CHANNELS 3 Zrotation Yrotation Xrotation
		JOINT Spine1
		{
			OFFSET 0.005487 0.135180 0.001092
			CHANNELS 3 Zrotation Yrotation Xrotation
			JOINT Spine2
			{
				OFFSET 0.001457 0.052922 0.025425
				CHANNELS 3 Zrotation Yrotation Xrotation
				JOINT Neck
				{
					OFFSET -0.002778 0.213870 -0.042857
					CHANNELS 3 Zrotation Yrotation Xrotation
					JOINT Head
					{
						OFFSET 0.005152 0.064970 0.051349
						CHANNELS 3 Zrotation Yrotation Xrotation
						End Site
						{
							OFFSET 0.000000 0.000000 0.000000
						}
					}
				}
				JOINT LeftShoulder
				{
					OFFSET 0.078845 0.121749 -0.034090
					CHANNELS 3 Zrotation Yrotation Xrotation
					JOINT LeftArm
					{
						OFFSET 0.090977 0.030469 -0.008868
						CHANNELS 3 Zrotation Yrotation Xrotation
						JOINT LeftForeArm
						{
							OFFSET 0.259612 -0.012772 -0.027456
							CHANNELS 3 Zrotation Yrotation Xrotation
							JOINT LeftHand
							{
								OFFSET 0.249234 0.008986 -0.001171
								CHANNELS 3 Zrotation Yrotation Xrotation
								End Site
								{
									OFFSET 0.000000 0.000000 0.000000
								}
							}
						}
					}
				}
				JOINT RightShoulder
				{
					OFFSET -0.081759 0.118833 -0.038615
					CHANNELS 3 Zrotation Yrotation Xrotation
					JOINT RightArm
					{
						OFFSET -0.096012 0.032551 -0.009143
						CHANNELS 3 Zrotation Yrotation Xrotation
						JOINT RightForeArm
						{
							OFFSET -0.253742 -0.013329 -0.021401
							CHANNELS 3 Zrotation Yrotation Xrotation
							JOINT RightHand
							{
								OFFSET -0.255298 0.007772 -0.005559
								CHANNELS 3 Zrotation Yrotation Xrotation
								End Site
								{
									OFFSET 0.000000 0.000000 0.000000
								}
							}
						}
					}
				}
			}
		}
	}
}
MOTION
Frames: 9
Frame Time: 0.050000
0.000000 0.943410 0.000000 -1.152609 -11.663683 1.337248 3.831092 0.140096 1.511171 0.047002 0.090365 -2.959521 1.556303 5.212972 8.714208 0.000000 0.000000 0.000000 -5.150861 0.274860 0.046791 3.429863 -0.274034 -0.955961 -1.741336 -10.590172 14.946722 0.000000 0.000000 0.000000 7.883583 -0.516594 4.377846 -5.571789 1.813324 -19.191532 -0.847040 10.674589 23.713309 8.469879 -2.224285 -28.468920 0.000000 0.000000 0.000000 -32.595591 -5.046958 -0.345638 -38.716843 -5.533699 -4.055452 2.180705 -16.281020 0.348851 0.000000 0.000000 0.000000 35.806837 -4.586259 -4.751863 41.836735 1.729630 -5.527205 -0.438968 22.815424 0.981199 0.000000 0.000000 0.000000 
-0.000098 0.941362 0.000924 -1.543254 -13.074732 1.638738 4.741720 0.199037 2.182529 -1.074419 0.240426 -4.007420 2.183384 6.173565 8.362396 0.000000 0.000000 0.000000 -4.628231 0.285749 -0.460653 3.006510 -0.231835 -0.735999 -1.221587 -9.631338 14.104080 0.000000 0.000000 0.000000 8.721057 -0.516201 4.139050 -6.295916 1.992349 -19.238649 -0.970753 12.690429 23.581911 9.424395 -2.364088 -29.683783 0.000000 0.000000 0.000000 -32.331602 -4.622431 -1.143858 -39.441575 -5.572176 -3.962355 4.111603 -16.151682 0.068362 0.000000 0.000000 0.000000 36.702020 -5.884839 -5.262373 42.391264 1.406730 -5.895842 -0.698157 24.525090 1.102725 0.000000 0.000000 0.000000 
-0.000254 0.940612 0.001346 -1.502784 -11.809752 1.872290 4.550037 0.125112 1.306955 -0.584955 0.166292 -3.256223 1.751847 5.381024 7.792439 0.000000 0.000000 0.000000 -4.558261 0.298500 -0.984756 3.018893 -0.229500 0.132815 -1.948125 -10.645892 13.870415 0.000000 0.000000 0.000000 9.022819 -0.494184 3.733684 -6.821428 2.155342 -20.140116 -0.302690 11.326955 25.005480 9.201031 -2.324695 -30.190268 0.000000 0.000000 0.000000 -31.161471 -4.883157 -0.464692 -40.483332 -6.200079 -4.098417 5.778814 -15.362052 -0.124542 0.000000 0.000000 0.000000 35.113141 -4.945942 -4.596866 43.604756 1.699536 -5.947789 -1.697544 24.244883 0.891196 0.000000 0.000000 0.000000 
-0.000399 0.939458 0.001566 -1.695730 -12.619443 1.977825 5.087885 0.151595 1.547210 -1.301131 0.249436 -3.507891 2.118707 5.950900 7.524140 0.000000 0.000000 0.000000 -4.779386 0.324789 -1.097668 3.659655 -0.270064 0.022431 -1.609520 -10.040460 13.513083 0.000000 0.000000 0.000000 9.203347 -0.522874 3.967525 -7.072833 2.187618 -20.982340 0.204287 12.238940 25.566837 9.474085 -2.228506 -31.463754 0.000000 0.000000 0.000000 -31.384406 -4.836962 -0.659360 -39.991163 -6.087753 -4.063568 6.615840 -15.755907 -0.244846 0.000000 0.000000 0.000000 35.654696 -5.421402 -4.802266 42.875040 1.409472 -6.072928 -1.764896 25.743901 0.977583 0.000000 0.000000 0.000000 
-0.000633 0.939278 0.001612 -1.637020 -12.719239 1.741599 5.036560 0.163940 1.680383 -1.309167 0.244677 -3.262074 2.168598 6.020508 7.411362 0.000000 0.000000 0.000000 -4.835768 0.301596 -0.589497 3.655704 -0.273576 -0.457873 -1.541560 -9.914482 13.472004 0.000000 0.000000 0.000000 8.834835 -0.539898 4.279862 -6.535163 2.038687 -20.753024 0.061195 12.356489 25.015762 9.641150 -2.311263 -31.286564 0.000000 0.000000 0.000000 -31.443503 -4.511732 -0.960052 -39.640626 -5.384181 -4.175349 7.479028 -16.919949 -0.396130 0.000000 0.000000 0.000000 35.401741 -4.958836 -4.416465 42.609392 1.245001 -6.042406 -2.390132 25.956828 0.844292 0.000000 0.000000 0.000000 
-0.000777 0.939146 0.001522 -1.717921 -13.082072 1.702458 5.210560 0.184912 1.932120 -1.508147 0.272241 -3.486696 2.304997 6.257421 7.449091 0.000000 0.000000 0.000000 -5.050089 0.320538 -0.652137 4.153196 -0.301571 -0.342690 -1.364477 -9.632692 13.440817 0.000000 0.000000 0.000000 8.435112 -0.565398 4.665458 -6.156324 1.919123 -21.068296 0.290604 12.968213 24.833863 9.839471 -2.299662 -31.570447 0.000000 0.000000 0.000000 -31.263963 -3.780735 -1.638144 -40.133075 -5.056664 -4.252501 8.051723 -17.869137 -0.517910 0.000000 0.000000 0.000000 35.659810 -5.349369 -4.574318 42.157087 0.952013 -6.110824 -3.036662 27.226285 0.772663 0.000000 0.000000 0.000000 
-0.000918 0.938818 0.001372 -1.776250 -13.217686 1.808323 5.346474 0.183376 1.883896 -1.644458 0.288654 -3.547619 2.374314 6.365610 7.375256 0.000000 0.000000 0.000000 -4.959324 0.318763 -0.678085 4.101076 -0.297585 -0.524984 -1.315487 -9.534451 13.357655 0.000000 0.000000 0.000000 8.185297 -0.568406 4.753977 -5.958944 1.861402 -20.776094 0.052320 12.901776 24.042777 10.386796 -2.616680 -31.308884 0.000000 0.000000 0.000000 -30.537503 -2.885798 -2.138725 -40.527925 -4.631632 -4.393500 7.861772 -19.383957 -0.536592 0.000000 0.000000 0.000000 35.672161 -5.572225 -4.851984 42.269070 0.888207 -6.049937 -3.512145 27.738125 0.675162 0.000000 0.000000 0.000000 
-0.001047 0.938204 0.001380 -1.700665 -13.463448 2.145392 5.340851 0.182432 1.889540 -1.819228 0.321535 -4.166111 2.474495 6.540572 7.436281 0.000000 0.000000 0.000000 -5.093797 0.354614 -1.139893 4.172569 -0.298346 -0.451953 -1.278919 -9.417486 13.114311 0.000000 0.000000 0.000000 7.757904 -0.488057 4.036014 -5.344821 1.681479 -20.548322 -0.449328 13.030066 23.693573 11.285431 -3.227273 -30.445005 0.000000 0.000000 0.000000 -29.962434 -2.630602 -2.224984 -40.439923 -3.887008 -4.615910 8.897772 -21.881739 -0.809476 0.000000 0.000000 0.000000 35.761147 -5.648179 -4.952082 41.628378 0.332459 -6.114330 -3.981194 30.692306 0.645391 0.000000 0.000000 0.000000 
-0.001070 0.938141 0.001508 -1.944682 -13.654777 2.386477 5.483959 0.188944 1.994503 -1.649287 0.316093 -4.633727 2.567039 6.707404 7.502833 0.000000 0.000000 0.000000 -4.868968 0.361633 -1.471826 4.204753 -0.297601 -0.260514 -1.187228 -9.291548 13.132213 0.000000 0.000000 0.000000 7.861546 -0.446255 3.553641 -5.373096 1.686049 -20.125583 -0.560746 12.600395 22.911047 10.801762 -3.131113 -29.783907 0.000000 0.000000 0.000000 -28.915423 -0.808311 -3.095044 -40.332233 -3.767768 -4.669266 8.524684 -27.645355 -0.931976 0.000000 0.000000 0.000000 34.052405 -6.882338 -5.927875 40.919381 0.561306 -5.794787 -3.502204 34.864624 0.870175 0.000000 0.000000 0.000000 
